PathFileType	4	(X/Y/Z)	Patient5_TMGait_0pt45_1_right_04.trc.trc
DataRate	CameraRate	NumFrames	NumMarkers	Units	OrigDataRate	OrigDataStartFrame	OrigNumFrames
55.776892430279	55.776892430279	6	32	mm	55.776892430279	53	       141
Frame#	Time	R.ASIS			L.ASIS			Chest			R.Shoulder			Neck			L.Shoulder			L.Elbow			L.Wrist			R.Elbow			R.Wrist			L.Thigh.Superior			L.Thigh.Lateral			L.Thigh.Inferior			L.Patella			L.Shank.Superior			L.Shank.Lateral			L.Shank.Inferior			L.Heel			L.Midfoot.Lateral			L.Midfoot.Superior			L.Toe			R.Thigh.Superior			R.Thigh.Lateral			R.Thigh.Inferior			R.Patella			R.Shank.Superior			R.Shank.Lateral			R.Shank.Inferior			R.Heel			R.Midfoot.Lateral			R.Midfoot.Superior			R.Toe			
		X1	Y1	Z1	X2	Y2	Z2	X3	Y3	Z3	X4	Y4	Z4	X5	Y5	Z5	X6	Y6	Z6	X7	Y7	Z7	X8	Y8	Z8	X9	Y9	Z9	X10	Y10	Z10	X11	Y11	Z11	X12	Y12	Z12	X13	Y13	Z13	X14	Y14	Z14	X15	Y15	Z15	X16	Y16	Z16	X17	Y17	Z17	X18	Y18	Z18	X19	Y19	Z19	X20	Y20	Z20	X21	Y21	Z21	X22	Y22	Z22	X23	Y23	Z23	X24	Y24	Z24	X25	Y25	Z25	X26	Y26	Z26	X27	Y27	Z27	X28	Y28	Z28	X29	Y29	Z29	X30	Y30	Z30	X31	Y31	Z31	X32	Y32	Z32	

53	7.042285714286	934.550861223858	963.626981340989	611.959423685384	910.246515536801	957.791080684968	372.495264705453	1007.193370637241	1425.201606900629	508.893611230582	930.934226554379	1483.668435541549	689.197716685478	875.286965936730	1548.108362086408	511.023477663641	921.387595961731	1501.448736509904	323.386374415113	807.571400363843	1193.720601791568	197.338966702366	914.581963959208	927.260882290723	172.523550481358	877.919365549384	1166.681925165763	843.773078736569	1075.995631066771	970.181936498788	764.723296495854	991.414746204718	792.538115758305	341.228151697880	957.394765956518	707.313129366278	287.589355631675	1054.600834779292	681.946248242757	342.719657870124	1104.076729962709	542.397651079785	323.852493094905	1032.445370270814	437.373754808923	347.107938064920	937.299207375555	397.383473389223	278.764402971409	962.099698589940	331.701877730158	359.422116616561	763.353292035973	154.838270186363	372.173905120148	830.698997345332	110.660876699290	297.933418514588	947.361058132664	134.485257285200	327.385657071929	1032.255657830065	64.322584308961	312.454128873212	918.170560210505	728.200138949368	621.140614656099	820.109471250765	659.179221491333	669.143074369937	890.444631317632	600.314697029253	591.221357599346	878.741990119788	505.771882401035	613.265713478362	832.865451130202	418.459749177490	570.081039059645	760.153692235152	348.380205848781	647.203824797986	814.838136395422	280.496237931079	561.650037531426	692.306276989240	53.678770815663	508.236830386984	764.008150760494	25.122374586271	588.139395166125	871.731811189668	87.552338038260	573.597935893947	975.329639294190	44.368609574695	583.385544908674	
54	7.060214285714	932.518643091048	962.096469416804	611.786207665178	910.663245315006	957.022231685016	372.583650706896	1009.308545782249	1424.055540390180	508.496706543258	932.409355953981	1483.691614629525	688.303542022815	877.802492983852	1547.520971939534	509.598678128655	924.708000748740	1499.772286615601	322.256361749303	810.151856344116	1192.315826932155	196.265333810458	916.790477325324	925.745912104358	171.818339875476	877.405696666195	1167.109940803037	843.021431714886	1076.723809509880	971.790206058543	764.367601786119	989.889534440410	791.188987840718	341.844394336821	956.458279281014	706.046771650531	287.808340825821	1052.969319056187	680.732358417015	344.046676840402	1104.555361618690	544.569541806028	325.008560204405	1040.874134189769	437.339142149508	347.898761930685	948.665863468824	390.020867560730	280.230342413242	980.578343671964	325.903732272639	359.757175880404	798.837344937191	132.129472467046	373.955233243678	868.368815458647	94.387618046705	298.048922768931	983.227586132109	128.102793144410	325.133066874552	1073.779773782627	65.499711691049	307.928793976319	914.157847487362	727.159960884978	621.175815978432	815.257078936284	659.078288805199	668.762360501514	885.320822806392	599.604237485747	591.106193752341	872.842704285887	505.127018761450	613.237580987846	826.469041765592	418.255013866505	569.946696494820	752.984016318555	348.743378607494	646.791634537174	807.728775150895	280.469522989529	561.678203307489	684.238439429326	53.663188817191	508.243006916635	755.843277387798	25.155441567120	588.143031969119	863.519204818276	87.422975510373	573.690346997095	967.103303676761	44.404251121063	583.463080612949	
55	7.078142857143	930.471663805533	960.251926562189	611.789911770510	911.553000694876	955.741103584925	372.667993364408	1011.545767450182	1422.675790161595	507.921311212718	933.806763083801	1483.325240061829	687.135452158546	880.408529595181	1546.633878714209	507.888104532363	928.342914545413	1497.927027670993	320.884369072108	813.003933924296	1190.655121066964	195.081358871565	919.098690552097	923.928476049523	170.800480933545	876.697976344258	1167.048583722303	841.783224800390	1077.250044533528	972.657837513972	764.080899094931	988.040910433012	788.282552041423	342.009223173157	954.402475250724	703.193634652693	288.134396755574	1050.379436313290	677.594149219168	345.054324750899	1103.338695773941	545.324761199703	326.316013507794	1048.034853287403	436.611061307029	349.027955806625	959.748273356417	381.933589113376	281.808039641576	998.760262221412	320.158443986973	360.359006064103	835.911509584789	111.252253630001	375.623401498016	907.249254027561	79.265431991051	298.645758563542	1019.489073046946	122.341266295507	323.659873133076	1114.738077384401	67.158340242746	305.065866944604	910.251260339425	726.083607716754	621.158430432445	810.443996412739	658.982479772613	668.227806878153	880.359003590951	598.900910798637	590.962629821852	867.029131143320	504.450069364944	613.168202230718	820.151923752975	417.973526253333	569.747387545606	745.817727148873	349.120411891417	646.262141863081	800.664121518836	280.403520624187	561.635891437473	676.167849939512	53.654612879630	508.225155440097	747.667528905437	25.192706637567	588.141977883013	855.301505442058	87.295344525422	573.750330009524	958.861599353759	44.435934762947	583.530419705209	
56	7.096071428571	928.597788932256	958.252200781464	611.975664611544	913.014773064533	954.018158601208	372.729907376206	1013.869139052614	1421.103318480944	507.147173344119	935.080620147724	1482.628569974017	685.628827839535	883.070313029395	1545.495709363462	505.825250604679	932.335485804355	1495.952868338719	319.231973878177	816.225273262487	1188.791617496597	193.694718692728	921.576871032429	921.832878752121	169.552864291390	875.898118065172	1166.554160088909	840.022955409468	1077.550206526622	972.695114167729	763.869422865687	986.066064732713	783.887627679644	341.782781932711	951.371052496333	698.806960680952	288.685157690316	1047.012002046200	672.654328697367	345.900657229423	1100.612131060438	544.712140757119	328.089579342976	1053.777022943691	435.212155288212	350.812817822607	970.268739152285	373.470947429001	283.716046654793	1016.003472100040	314.682578276697	361.510871044422	873.011716460192	92.929883948428	377.097728010317	946.074903800187	65.857412054184	299.821872074480	1055.026223513077	117.486790718925	323.399726676091	1154.107751953534	69.339027385331	304.505958195022	906.657258912660	725.003747901195	621.022920147521	805.886103343322	658.896381187804	667.511344620749	875.779931300266	598.188381411055	590.783907057154	861.510642044189	503.733837810145	613.039650581390	814.104239955056	417.591577134334	569.464654234944	738.809825299076	349.517117752747	645.600845433699	793.758819181782	280.269916753694	561.508747117940	668.083169726165	53.645938729200	508.181348436455	739.487260996997	25.229341992852	588.132074732103	847.078375819129	87.195377592140	573.782295703295	950.616336158563	44.454287564585	583.575665040386	
57	7.114000000000	927.149729729702	956.344983463624	612.187129334179	915.160768587757	951.972641271312	372.718990020224	1016.229060252941	1419.414227174605	506.161510542222	936.139947869364	1481.695223617801	683.731362997091	885.733062190961	1544.167568137461	503.350146607702	936.687019188788	1493.894814404913	317.266144610018	819.934474744985	1186.782417066449	191.977181603472	924.320098396205	919.488624060666	168.160733369068	875.060020531401	1165.715950582984	837.722069405554	1077.603955841955	971.934480871332	763.690997705170	984.258638899045	778.232881948518	341.269419801294	947.717459292344	693.125721875946	289.519155257413	1043.179713270070	666.221506551764	346.801018163161	1096.725071355838	542.880655662352	330.646719011769	1058.038113734392	433.166116175222	353.518111933084	979.874255315925	365.001432100076	286.178000975640	1031.586977961074	309.591619274492	363.477592355547	908.208584300446	77.646186896189	378.347868726453	983.152782295456	54.558088377237	301.649807300059	1088.384113723283	113.631325666644	324.748737736255	1190.552782234570	71.859742320173	306.733579871572	903.571896654353	723.941196036153	620.671380886021	801.797194137901	658.817008968078	666.582576253011	871.773320837518	597.445415436904	590.540787741244	856.476827342081	502.967699512640	612.820324616554	808.491744963467	417.092419627285	569.073951938195	732.107071386339	349.940154839138	644.797701920683	787.114284985593	280.048732842732	561.289349591396	659.979483070094	53.625507793746	508.116371730179	731.309029714146	25.257059551336	588.110028196572	838.849373738030	87.145226897813	573.791322225146	942.378598325508	44.453907626884	583.592778194535	
58	7.131928571429	926.378670387376	954.805415615963	612.171174202768	918.082638893090	949.760850257266	372.570202810350	1018.573572009291	1417.717929808565	504.954822332280	936.872796846277	1480.642370269129	681.408921390408	888.336001682390	1542.722035748821	500.420182058282	941.346012401111	1491.809736100555	314.964719781418	824.249023908068	1184.681424115015	189.801834557604	927.437780258623	916.931929652778	166.698949668722	874.182009719012	1164.645881595819	834.879281669132	1077.393955463279	970.522273209255	763.471365170994	983.002359779228	771.735671271143	340.626674112916	944.016824655992	686.593341563786	290.647749738441	1039.338754214069	658.804354851465	348.007458715189	1092.190866001015	540.078900576679	334.241343159915	1060.869059553214	430.524720850554	357.279528146553	988.226561063041	356.898620372827	289.333976505112	1044.806006940806	304.911981190705	366.420998772112	939.427914649684	65.630687774892	379.393380666149	1016.519139632494	45.558672168027	304.131982952454	1117.928157227145	110.644229894712	327.944148000445	1222.535542900173	74.274574148485	311.914874338110	901.156218560153	722.907959326316	620.017983026220	798.361334370222	658.737587812807	665.418348427739	868.487484394409	596.654516822258	590.195177171145	852.081473541482	502.142134098857	612.478815997796	803.447978428446	416.471077102861	568.553967899385	725.835821880966	350.398840665481	643.850595173869	780.809582036663	279.734571895560	560.978262945180	651.858500601637	53.588499288082	508.040749153033	723.141059928234	25.268129727763	588.073504087656	830.619826414930	87.157781938145	573.782377544604	934.159234041919	44.434652102224	583.583615494513	
